<svg width="542" height="542" viewBox="0 0 542 542" fill="none" xmlns="http://www.w3.org/2000/svg">
<rect x="2" y="2" width="537.714" height="537.714" rx="68" fill="#08090B"/>
<rect x="2" y="2" width="537.714" height="537.714" rx="68" stroke="#282B2E" stroke-width="4"/>
<g clip-path="url(#clip0_887_230)">
<path d="M83.5 96.5H457.5V444.5H83.5V96.5Z" stroke="black" stroke-width="5"/>
<path d="M270.5 116C307.977 116 343.982 129.86 370.893 154.645C397.803 179.431 413.507 213.195 414.678 248.789L414.75 253.073L414.732 372.223L414.912 373.988C415.48 383.088 413.287 392.152 408.595 400.103C403.904 408.054 396.909 414.559 388.442 418.845L385.503 420.216C366.516 428.355 344.338 424.465 329.084 410.056L326.613 407.554C325.517 406.222 324.116 405.145 322.517 404.404C320.917 403.663 319.161 403.278 317.381 403.278C315.602 403.278 313.846 403.663 312.246 404.404C310.647 405.145 309.246 406.222 308.149 407.554C303.68 412.988 297.967 417.383 291.444 420.406C284.92 423.429 277.758 425 270.5 425C263.243 425 256.08 423.429 249.557 420.406C243.033 417.383 237.32 412.988 232.851 407.554C231.756 406.221 230.355 405.142 228.755 404.4C227.156 403.658 225.399 403.271 223.619 403.27C220.013 403.27 216.605 404.847 213.702 408.342C206.796 415.774 197.623 420.973 187.46 423.214C177.297 425.456 166.651 424.628 157.006 420.846C147.362 417.065 139.2 410.518 133.658 402.118C128.115 393.718 125.469 383.885 126.088 373.988L126.233 372.429L126.251 253.073L126.323 248.789C127.494 213.195 143.197 179.431 170.108 154.645C197.018 129.86 233.024 116 270.5 116ZM321.348 294.692C318.618 290.965 314.443 288.421 309.74 287.618C305.038 286.815 300.192 287.819 296.267 290.408C288.707 295.413 279.714 298.096 270.5 298.096C261.286 298.096 252.294 295.413 244.734 290.408C240.808 287.813 235.957 286.807 231.25 287.61C226.543 288.414 222.365 290.961 219.634 294.692C216.904 298.422 215.844 303.031 216.69 307.504C217.535 311.977 220.216 315.948 224.142 318.542C237.746 327.541 253.924 332.366 270.5 332.366C287.076 332.366 303.254 327.541 316.858 318.542C318.803 317.258 320.461 315.622 321.74 313.728C323.019 311.834 323.892 309.719 324.311 307.504C324.73 305.289 324.685 303.018 324.18 300.82C323.674 298.621 322.718 296.539 321.366 294.692H321.348ZM234.618 218.805L232.328 218.925C227.765 219.44 223.58 221.593 220.631 224.942C217.681 228.29 216.188 232.583 216.458 236.943C216.727 241.303 218.738 245.4 222.08 248.398C225.422 251.396 229.842 253.068 234.438 253.073L236.728 252.953C241.291 252.437 245.476 250.285 248.425 246.936C251.375 243.587 252.868 239.294 252.598 234.935C252.329 230.575 250.318 226.478 246.976 223.48C243.634 220.482 239.214 218.809 234.618 218.805ZM306.743 218.805L304.453 218.925C299.889 219.44 295.705 221.593 292.756 224.942C289.806 228.29 288.313 232.583 288.582 236.943C288.852 241.303 290.863 245.4 294.205 248.398C297.546 251.396 301.967 253.068 306.563 253.073L308.853 252.953C313.416 252.437 317.6 250.285 320.55 246.936C323.5 243.587 324.993 239.294 324.723 234.935C324.454 230.575 322.443 226.478 319.101 223.48C315.759 220.482 311.339 218.809 306.743 218.805Z" fill="black" stroke="#BEF264" stroke-width="5.83"/>
</g>
<rect x="81.5" y="94.5" width="378" height="352" stroke="black" stroke-dasharray="2 2"/>
<defs>
<clipPath id="clip0_887_230">
<rect x="81" y="94" width="379" height="353" fill="white"/>
</clipPath>
</defs>
</svg>
